<?xml version="1.0" encoding="utf-8"?>
<!-- Generator: Adobe Illustrator 25.0.0, SVG Export Plug-In . SVG Version: 6.00 Build 0)  -->
<svg version="1.1" id="Layer_3" xmlns="http://www.w3.org/2000/svg" xmlns:xlink="http://www.w3.org/1999/xlink" x="0px" y="0px"
	 viewBox="0 0 496 496" style="enable-background:new 0 0 496 496;" xml:space="preserve">
<style type="text/css">
	.st0{fill:#297815;}
</style>
<path class="st0" d="M265.8,342.8c29.5-6.1,51.4-27.3,51.4-52.6c0-30.1-30.7-54.5-68.5-54.5c-18.9,0-34.2-12.2-34.2-27.3
	s15.4-27.3,34.2-27.3s34.3,12.2,34.3,27.3h34.2c0-25.3-21.9-46.5-51.4-52.6v-29.2h-34.3v29.2c-29.5,6.1-51.4,27.3-51.4,52.6
	c0,30.1,30.7,54.5,68.5,54.5c18.9,0,34.3,12.2,34.3,27.3s-15.4,27.3-34.3,27.3s-34.2-12.2-34.2-27.3h-34.2
	c0,25.3,21.9,46.5,51.4,52.6V372h34.2V342.8z"/>
<path class="st0" d="M248,16c61.6-0.2,120.6,24.3,164,68c3.2,3,8.1,3,11.3,0L440,67.3V128h-60.7l15.8-15.8c3.1-3.1,3.1-8.2,0-11.3
	C356.2,61.8,303.2,39.8,248,40v16c48.2-0.1,94.6,18,130,50.7l-23.6,23.6c-3.1,3.1-3.1,8.2,0,11.3c1.5,1.5,3.5,2.3,5.7,2.3h88
	c4.4,0,8-3.6,8-8V48c0-4.4-3.6-8-8-8c-2.1,0-4.2,0.8-5.7,2.3l-24.7,24.7C371.8,23.8,311-0.2,248,0C111.3,0,0,111.2,0,248h16
	C16,120.1,120.1,16,248,16z"/>
<path class="st0" d="M327,437.4l-6.6-14.6c-22.9,10.5-47.7,16.3-72.9,17.1l0.6,16C275.3,455,302.2,448.7,327,437.4z"/>
<path class="st0" d="M480,248c0,127.9-104.1,232-232,232c-61.5,0.2-120.6-24.3-164-68c-3.2-3-8.1-3-11.3,0L56,428.7V368h60.7
	l-15.8,15.8c-3.1,3.1-3.1,8.2,0,11.3c38.9,39.1,91.9,61.1,147.1,60.9v-16c-48.2,0.1-94.6-18-130-50.7l23.6-23.6
	c3.1-3.1,3.1-8.2,0-11.3c-1.5-1.5-3.5-2.3-5.7-2.3H48c-4.4,0-8,3.6-8,8v88c0,4.4,3.6,8,8,8c2.1,0,4.2-0.8,5.7-2.3l24.7-24.7
	C124.2,472.2,185,496.2,248,496c136.7,0,248-111.2,248-248H480z"/>
<path class="st0" d="M169.1,57.4l6.4,14.7C198.6,62,223.4,56.5,248.6,56l-0.3-16C221,40.5,194.1,46.5,169.1,57.4z"/>
</svg>
