<?xml version="1.0" encoding="utf-8"?>
<!-- Generator: Adobe Illustrator 25.0.0, SVG Export Plug-In . SVG Version: 6.00 Build 0)  -->
<svg version="1.1" id="a7bd42df-0eaf-4f58-b315-9606670bfe25"
	 xmlns="http://www.w3.org/2000/svg" xmlns:xlink="http://www.w3.org/1999/xlink" x="0px" y="0px" viewBox="0 0 1200 663"
	 style="enable-background:new 0 0 1200 663;" xml:space="preserve">
<style type="text/css">
	.st0{fill:#0E5A00;}
	.st1{opacity:0.1;enable-background:new}
	.st2{fill:#D0CDE1;}
	.st3{fill:#3F3D56;}
	.st4{fill:#150800;}
	.st5{fill:#2F2E41;}
	.st6{fill:#A0616A;}
</style>
<path class="st0" d="M1200,0v663H986.4c-3,0-6,0-9.1-0.1l-2.2,0c-2.4,0-4.9-0.1-7.3-0.2c-7.5-0.2-15-0.5-22.5-0.9
	c-124.9-6.5-246.5-42.6-355.9-104.3C328.8,410.5,0,476.1,0,476.1V0H1200z"/>
<polygon class="st1" points="252.4,0 188.3,44 117,92.9 109.4,98.2 51,138.2 0,173.2 0,82.6 23,66.8 27.9,63.4 51,47.5 56.2,44 
	120.3,0 "/>
<polygon class="st1" points="425,0 324,69.3 227,135.9 219.4,141.1 212.3,146 0,291.8 0,201.1 80.2,146 133,109.8 137.9,106.4 
	228.8,44 292.9,0 "/>
<path class="st2" d="M1148,334H778V87h370V334z M780,332h366V89H780V332z"/>
<rect x="860" y="191" class="st2" width="44" height="116"/>
<rect x="941" y="236" class="st2" width="44" height="71"/>
<rect x="1022" y="143" class="st2" width="44" height="164"/>
<circle class="st2" cx="963" cy="191" r="22"/>
<path class="st2" d="M325,147H50V43h275V147z M52,145h271V45H52V145z"/>
<path class="st2" d="M630,321H480v-73h150V321z M482,319h146v-69H482V319z"/>
<polygon class="st2" points="161.5,72.5 213.5,95.5 161.5,117.5 "/>
<path class="st2" d="M553.3,168.9l-10.2,13c-16.3-23.1-35.7-41.8-57.9-55.6c-18.6-11.6-39.2-19.8-60.6-24.3
	c-37-7.9-65.6-2.6-65.9-2.5l0.7,3.6c0.3-0.1,28.1-5.2,64.4,2.5c32.9,7,79.5,26.3,116.2,78.2l-16.1,3.5c10.1,3.1,22.5,10.5,31.3,17.2
	C552.9,193.7,551.6,179.3,553.3,168.9z"/>
<path class="st2" d="M830.7,387.3c-0.2,0.2-22.6,17.8-58.3,27.8c-32.3,9.1-82.5,13.7-139.1-15.2l12.6-10.6
	c-10.4,2-24.8,1.2-35.7-0.7c7,8.5,14.8,20.7,18.2,30.7l3-16.3c25.1,12.8,51.1,20.3,77.2,22.2c4.5,0.3,9,0.5,13.4,0.5
	c17.4,0,34.8-2.4,51.6-7.2c36.4-10.3,59.2-28.3,59.5-28.5L830.7,387.3z"/>
<path class="st2" d="M278.3,362.3c0.2,0.2,22.6,17.8,58.3,27.8c32.3,9.1,82.5,13.7,139.1-15.2l-12.6-10.6c10.4,2,24.8,1.2,35.7-0.7
	c-7,8.5-14.8,20.7-18.2,30.7l-3-16.3c-25.1,12.8-51.1,20.3-77.2,22.2c-4.5,0.3-9,0.5-13.4,0.5c-17.4,0-34.8-2.4-51.6-7.2
	c-36.4-10.3-59.2-28.3-59.5-28.5L278.3,362.3z"/>
<path class="st2" d="M227.5,408.7h-154v-154h154V408.7z M75.6,406.6h149.7V256.9H75.6V406.6z"/>
<path class="st2" d="M685.9,110.1c0-6.6,5.4-12,12-12s12,5.4,12,12s-5.4,12-12,12C691.3,122.1,685.9,116.8,685.9,110.1z
	 M687.9,110.1c0,5.5,4.5,10,10,10s10-4.5,10-10s-4.5-10-10-10C692.4,100.1,687.9,104.6,687.9,110.1z"/>
<path class="st3" d="M825.6,550.9l-17.7-18.9l18.9-17.7l17.7,18.9L825.6,550.9z M810.7,532l14.9,16l16-14.9l-14.9-16L810.7,532z"/>
<path class="st2" d="M357.6,222.9l-17.7-18.9l18.9-17.7l17.7,18.9L357.6,222.9z M342.7,204l14.9,16l16-14.9l-14.9-16L342.7,204z"/>
<circle class="st4" cx="1004" cy="383.4" r="66.9"/>
<path class="st5" d="M1093.7,663H986.4c-3,0-6,0-9.1-0.1l-2.2,0c-2.4,0-4.9-0.1-7.3-0.2l-2.4-9.4l4.8-0.8l5.7-1l54.9-9.3l45.7-7.8
	c1.4-0.2,2.9-0.2,4.3,0.2c4.1,1.1,7.1,4.7,7.4,8.9C1088.7,649.8,1090.1,657.5,1093.7,663z"/>
<ellipse transform="matrix(0.1602 -0.9871 0.9871 0.1602 430.5355 1321.8829)" class="st6" cx="992.1" cy="407.9" rx="44" ry="44"/>
<path class="st6" d="M992.1,447.3c0,0,15.4,39.4,3.1,46.3s-18.5,7.7-18.5,7.7l-13.1,22.4l-7.7,23.2l61.7,2.3l43.2-68.7
	c0,0-20.8-10.8-31.6-57.1L992.1,447.3z"/>
<path class="st2" d="M1072.8,481.6c0,0-7.9-5.2-15.1-3.4c-3.6,0.8-7,1.9-10.4,3.4c0,0-40.1,54.8-61.7,56.3c0,0-28.6,7.7-21.6-3.9
	s22.2-35.9,22.2-35.9s-27.6,6.6-27.6,15.9s-5.4,26.2-5.4,26.2s-26.2,26.2,0,57.1s16.2,58.7,16.2,58.7l115.8-20.8L1072.8,481.6z"/>
<path class="st2" d="M967.9,662.8c-7.5-0.2-15-0.5-22.5-0.9l4.5-68.7l0.9-14.3l20.8,39.4c0,0,1.9,13.8,4.3,33.3
	c0.1,1,0.3,2.1,0.4,3.2c0.3,2.6,0.7,5.4,1,8.2l-2.2,0C972.8,662.9,970.3,662.8,967.9,662.8z"/>
<circle class="st4" cx="1031.8" cy="322.5" r="27.7"/>
<path class="st4" d="M994.8,307.5c0-14.2,10.7-26.1,24.8-27.6c-1-0.1-1.9-0.1-2.9-0.1c-15.3,0-27.7,12.4-27.7,27.7
	c0,15.3,12.4,27.7,27.7,27.7c1,0,1.9-0.1,2.9-0.1C1005.5,333.6,994.8,321.7,994.8,307.5z"/>
<ellipse transform="matrix(0.2568 -0.9665 0.9665 0.2568 370.4054 1248.0236)" class="st4" cx="996.7" cy="383.2" rx="27.7" ry="46.2"/>
<path class="st2" d="M1083.2,611.9c-0.9,9.2-1.8,17.1-2.4,22.8c-0.1,0.4-0.1,0.9-0.2,1.3c-0.6,5.3-1,8.5-1,8.5l-9.2,18.5h-48.9
	c2.8-6.4,5.5-12.5,7.9-17.8c0.5-1,0.9-2,1.3-3c5.3-11.9,9.1-19.8,9.9-20.5c3.1-3.1,12.7-135.4,12.7-135.4s7.5-6.4,15.7-6.5h0
	c5.7-0.1,11.8,3,16,13.4C1091.8,510.3,1087.1,572.8,1083.2,611.9z"/>
<path class="st1" d="M955.5,600.2c0,0,17,36.1,15.7,45.8S955.5,600.2,955.5,600.2z"/>
<ellipse class="st6" cx="1039.2" cy="405.6" rx="3.9" ry="7.7"/>
<path class="st2" d="M611.6,266.1c-3.9,0-7-2.7-7-6c0-1.3-1.2-2.3-2.7-2.3h-96.8c-1.5,0-2.7,1-2.7,2.3c0,3.3-3.1,6-7,6
	c-1.5,0-2.7,1-2.7,2.3v33.2c0,1.3,1.2,2.3,2.7,2.3c3.9,0,7,2.7,7,6c0,1.3,1.2,2.3,2.7,2.3h96.8c1.5,0,2.7-1,2.7-2.3c0-3.3,3.1-6,7-6
	c1.5,0,2.7-1,2.7-2.3v-33.2C614.2,267.1,613,266.1,611.6,266.1C611.6,266.1,611.6,266.1,611.6,266.1L611.6,266.1z M571.6,285
	c0,12.4-8.1,22.6-18.1,22.6c-10,0-18.1-10.1-18.1-22.6s8.1-22.6,18.1-22.6C563.5,262.4,571.6,272.6,571.6,285z M507.5,307.5
	c-1.1-4-4.7-7.1-9.4-8v-29.1c4.7-0.9,8.4-4,9.4-8h32.9c-6.3,4.9-10.4,13.2-10.4,22.6s4.1,17.7,10.4,22.6H507.5z M608.9,299.5
	c-4.7,0.9-8.3,4-9.4,8h-32.9c6.3-4.9,10.4-13.2,10.4-22.6c0-9.4-4.1-17.7-10.4-22.6h32.9c1.1,4,4.7,7.1,9.4,8V299.5z"/>
<path class="st2" d="M545.2,280.3c0,2.9,2.7,5.4,6.6,6.1v5.9c-1.3-0.6-2.1-1.6-2.1-2.6c0-0.9-1-1.6-2.3-1.6c-1.3,0-2.3,0.7-2.3,1.6
	c0,2.9,2.7,5.4,6.6,6.1v1c0,0.9,1,1.6,2.3,1.6s2.3-0.7,2.3-1.6v-1c4.8-0.9,7.6-4.3,6.4-7.7c-0.8-2.2-3.2-3.9-6.4-4.5v-5.9
	c1.3,0.6,2.1,1.6,2.1,2.6c0,0.9,1,1.6,2.3,1.6c1.3,0,2.3-0.7,2.3-1.6c0-2.9-2.7-5.4-6.6-6.1v-1c0-0.9-1-1.6-2.3-1.6
	s-2.3,0.7-2.3,1.6v1C547.9,274.9,545.2,277.4,545.2,280.3L545.2,280.3z M558.5,289.7c0,1.1-0.8,2.1-2.1,2.6v-5.3
	C557.7,287.6,558.5,288.6,558.5,289.7L558.5,289.7z M551.8,277.6v5.3c-2-0.9-2.7-2.8-1.5-4.2C550.7,278.3,551.2,277.9,551.8,277.6z"
	/>
<path class="st2" d="M197.7,347.6c-0.6-0.3-1.3-0.5-2-0.7c-1.8-0.4-3.7,0-5.3,0.9l-21.5,12.4c-0.9-2.3-2.8-4.1-5.2-4.8l-23.3-6.2
	c-0.8-0.2-1.7-0.3-2.5-0.3h-12.3c-1.7,0-3.5,0.5-5,1.4l-4.9,2.9v-6.2H96.4v42.5h19.3v-6.8l5.7,2.2c1.1,0.4,2.3,0.7,3.5,0.7H156
	c1.8,0,3.6-0.5,5.1-1.4l37.1-23c2.4-1.4,3.9-3.9,3.8-6.7c0-1.4-0.4-2.7-1-3.9C200.2,349.3,199.1,348.2,197.7,347.6z M111.9,385.6
	h-11.6v-34.8h11.6V385.6z M196.2,357.9l-37.1,23c-0.9,0.6-2,0.9-3,0.9H125c-0.7,0-1.4-0.1-2.1-0.4l-7.1-2.8v-20.8l6.9-4.1
	c0.9-0.5,1.9-0.8,3-0.8h12.3c0.5,0,1,0.1,1.5,0.2l23.3,6.2c1.6,0.4,2.7,1.8,2.8,3.4c0,0.2,0,0.4,0,0.7c0,0.2-0.1,0.5-0.1,0.7
	c-0.4,1.7-2,2.8-3.7,2.9c-0.3,0-1.4-0.3-2.2-0.4l-20.1-5.4l-1,3.7l20.1,5.4c1,0.3,2.1,0.5,3.1,0.5c3.5,0,6.6-2.4,7.5-5.7
	c0-0.1,0-0.2,0.1-0.4l23.2-13.4c0.8-0.5,1.7-0.6,2.6-0.4c0.3,0.1,0.7,0.2,1,0.3c0.7,0.3,1.2,0.9,1.6,1.5c0.3,0.6,0.5,1.3,0.5,1.9
	C198.2,355.9,197.4,357.2,196.2,357.9z"/>
<path class="st2" d="M165.9,325.7c-5.2,0-9.7-2.7-9.7-5.8h-3.9c0,4.9,5,8.9,11.6,9.5v5.9h3.9v-5.9c6.6-0.7,11.6-4.6,11.6-9.5
	c0-5.4-5.9-9.7-13.5-9.7c-5.2,0-9.7-2.7-9.7-5.8c0-3.1,4.4-5.8,9.7-5.8c5.2,0,9.7,2.7,9.7,5.8h3.9c0-4.9-5-8.9-11.6-9.5V289H164v5.9
	c-6.6,0.7-11.6,4.6-11.6,9.5c0,5.4,5.9,9.7,13.5,9.7c5.2,0,9.7,2.7,9.7,5.8C175.6,323.1,171.2,325.7,165.9,325.7z"/>
<path class="st2" d="M165.9,350.8c21.3,0,38.6-17.3,38.6-38.6s-17.3-38.6-38.6-38.6s-38.6,17.3-38.6,38.6
	C127.4,333.5,144.6,350.8,165.9,350.8z M165.9,277.4c19.2,0,34.8,15.6,34.8,34.8c0,19.2-15.6,34.8-34.8,34.8s-34.8-15.6-34.8-34.8
	C131.2,293,146.8,277.5,165.9,277.4z"/>
<path class="st2" d="M165.9,343.1c17.1,0,30.9-13.8,30.9-30.9s-13.8-30.9-30.9-30.9s-30.9,13.8-30.9,30.9
	C135.1,329.2,148.9,343.1,165.9,343.1z M165.9,285.2c14.9,0,27,12.1,27,27c0,14.9-12.1,27-27,27c-14.9,0-27-12.1-27-27
	C138.9,297.3,151,285.2,165.9,285.2z"/>
</svg>
